<?xml version="1.0" encoding="UTF-8" standalone="no"?>
<!-- Generator: Adobe Illustrator 16.0.2, SVG Export Plug-In . SVG Version: 6.00 Build 0)  -->

<svg
   xmlns:dc="http://purl.org/dc/elements/1.1/"
   xmlns:cc="http://creativecommons.org/ns#"
   xmlns:rdf="http://www.w3.org/1999/02/22-rdf-syntax-ns#"
   xmlns:svg="http://www.w3.org/2000/svg"
   xmlns="http://www.w3.org/2000/svg"
   xmlns:sodipodi="http://sodipodi.sourceforge.net/DTD/sodipodi-0.dtd"
   xmlns:inkscape="http://www.inkscape.org/namespaces/inkscape"
   version="1.1"
   id="Layer_1"
   x="0px"
   y="0px"
   width="512px"
   height="512px"
   viewBox="0 0 512 512"
   enable-background="new 0 0 512 512"
   xml:space="preserve"
   inkscape:version="0.48.4 r9939"
   sodipodi:docname="message.svg"><metadata
   id="metadata3001"><rdf:RDF><cc:Work
       rdf:about=""><dc:format>image/svg+xml</dc:format><dc:type
         rdf:resource="http://purl.org/dc/dcmitype/StillImage" /></cc:Work></rdf:RDF></metadata><defs
   id="defs2999" /><sodipodi:namedview
   pagecolor="#ffffff"
   bordercolor="#666666"
   borderopacity="1"
   objecttolerance="10"
   gridtolerance="10"
   guidetolerance="10"
   inkscape:pageopacity="0"
   inkscape:pageshadow="2"
   inkscape:window-width="740"
   inkscape:window-height="473"
   id="namedview2997"
   showgrid="false"
   inkscape:zoom="0.4609375"
   inkscape:cx="256"
   inkscape:cy="256"
   inkscape:window-x="67"
   inkscape:window-y="344"
   inkscape:window-maximized="0"
   inkscape:current-layer="Layer_1" />
<path
   d="M512,384c0,11.219-3.156,21.625-8.219,30.781L342.125,233.906L502.031,94c6.219,9.875,9.969,21.469,9.969,34V384z   M256,266.75L478.5,72.063c-9.125-5-19.406-8.063-30.5-8.063H64c-11.109,0-21.391,3.063-30.484,8.063L256,266.75z M318.031,254.969  l-51.5,45.094C263.516,302.688,259.766,304,256,304s-7.516-1.313-10.531-3.938l-51.516-45.094L30.25,438.156  C40.063,444.313,51.563,448,64,448h384c12.438,0,23.938-3.688,33.75-9.844L318.031,254.969z M9.969,94C3.75,103.875,0,115.469,0,128  v256c0,11.219,3.141,21.625,8.219,30.781l161.641-180.906L9.969,94z"
   id="path2995"
   style="fill:#999999" />
</svg>